<svg width="24" height="24" viewBox="0 0 24 24" fill="none" xmlns="http://www.w3.org/2000/svg">
<path d="M20.5206 4.27344C19.9938 3.74649 19.3683 3.32849 18.6799 3.0433C17.9915 2.75811 17.2536 2.61133 16.5084 2.61133C15.7633 2.61133 15.0254 2.75811 14.337 3.0433C13.6486 3.32849 13.0231 3.74649 12.4962 4.27344L12.0001 4.76953L11.504 4.27344C10.9772 3.74649 10.3517 3.32849 9.66327 3.0433C8.97485 2.75811 8.23699 2.61133 7.49184 2.61133C6.74668 2.61133 6.00883 2.75811 5.32041 3.0433C4.63199 3.32849 4.00649 3.74649 3.47963 4.27344C1.77846 5.97412 1.48163 8.59424 2.68663 11.2827C4.15538 14.561 11.0343 20.8608 11.3263 21.1274C11.5105 21.2955 11.7508 21.3886 12.0001 21.3886C12.2494 21.3886 12.4898 21.2955 12.6739 21.1274C12.9659 20.8608 19.8448 14.561 21.3136 11.2822C22.5187 8.59424 22.2218 5.97412 20.5206 4.27344ZM19.4894 10.4644C18.5197 12.6274 14.2404 16.915 12.0001 19.0244C9.75991 16.915 5.48159 12.6289 4.51088 10.4648C4.10268 9.55225 3.32143 7.25977 4.89369 5.6875C5.58276 4.99844 6.51734 4.61133 7.49183 4.61133C8.46632 4.61133 9.4009 4.99844 10.09 5.6875L11.2931 6.89063C11.386 6.98351 11.4962 7.05719 11.6175 7.10745C11.7388 7.15772 11.8689 7.1836 12.0002 7.1836C12.1315 7.1836 12.2615 7.15772 12.3828 7.10745C12.5041 7.05719 12.6144 6.98351 12.7072 6.89063L13.9103 5.6875C14.6104 5.01967 15.5409 4.64709 16.5084 4.64709C17.476 4.64709 18.4064 5.01967 19.1066 5.6875C20.6788 7.25977 19.8976 9.55225 19.4894 10.4644Z" fill="#242424"/>
</svg>
