<svg width="187" height="179" viewBox="0 0 187 179" fill="none" xmlns="http://www.w3.org/2000/svg">
<mask id="mask0_1040_4951" style="mask-type:alpha" maskUnits="userSpaceOnUse" x="0" y="0" width="187" height="179">
<path d="M0 9.88688C0 4.49851 4.36814 0.130371 9.75652 0.130371H177.243C182.632 0.130371 187 4.49851 187 9.88689V169.243C187 174.632 182.632 179 177.243 179H9.75651C4.36813 179 0 174.632 0 169.243V9.88688Z" fill="#FF7F4D"/>
</mask>
<g mask="url(#mask0_1040_4951)">
<path d="M81.9047 193.352C84.5661 189.996 86.0345 187.203 86.8177 184.985L87.35 185.315C90.1582 172.749 84.7588 160.524 84.7588 160.524L66.8905 155.52C66.8905 155.52 64.1373 164.137 61.8858 169.445C58.3831 174.165 52.7114 175.667 52.7114 175.667L49.2485 198.522C49.2455 198.525 74.2324 203.028 81.9047 193.352Z" fill="white"/>
<path d="M107.674 136.718C119.17 143.402 130.651 146.77 143.925 145.938L180.955 127.418C185.67 114.126 189.319 100.183 188.658 86.0954C187.998 72.0082 182.543 57.6609 171.659 48.6946C166.522 44.4638 160.395 41.5638 155.295 37.2871C148.082 31.2361 143.044 22.5329 134.757 18.0605C121.611 10.9664 103.205 13.9796 96.906 27.868C87.3462 26.8677 75.642 36.3143 83.5743 62.2679C85.7462 69.3773 89.3346 78.8331 88.1568 86.1719C84.7581 107.378 92.1796 127.712 107.674 136.718Z" fill="#4B4B4B"/>
<path d="M191.641 132.631C187.294 101.363 161.475 95.9304 161.475 95.9304L108.427 97.8057C108.427 97.8057 95.1658 98.3777 85.4072 110.477C75.6486 122.575 70.7693 127.455 70.393 138.715C70.0167 149.976 76.7744 166.116 79.7754 171.745C82.7794 177.373 80.5248 192.388 80.5248 192.388C80.5248 192.388 120.902 231.049 181.458 222.538C179.705 217.359 177.857 211.868 177.343 207.414C190.5 187.514 195.26 158.685 191.641 132.631Z" fill="white"/>
<path d="M79.1511 190.745C79.0471 191.228 79.2949 191.736 79.7935 191.873C80.2524 191.999 80.8184 191.72 80.9224 191.231C81.8493 186.948 82.0756 182.525 81.5801 178.172C81.0784 173.748 79.8914 169.444 78.0376 165.397C77.0159 163.167 75.783 161.037 74.3605 159.037C74.073 158.633 73.5591 158.44 73.1063 158.706C72.7086 158.939 72.4884 159.557 72.7759 159.961C75.2263 163.402 77.0954 167.229 78.3099 171.273C79.5213 175.296 80.0933 179.49 79.9893 183.69C79.9312 186.067 79.6528 188.423 79.1511 190.745Z" fill="#180205"/>
<path d="M145.834 57.6457C146.336 47.7617 137.703 49.1383 135.449 53.7667C135.449 53.7667 125.439 54.143 119.309 44.883C113.178 35.6261 103.377 34.999 99.2499 40.38C99.2499 40.38 93.0368 39.2542 92.1589 48.6366C91.2839 58.0189 95.0558 87.5456 114.065 87.1724C114.065 87.1724 113.931 94.4286 113.429 96.931L108.424 97.8059C108.424 97.8059 112.315 109.74 131.071 110.443C154.467 111.318 161.473 95.9306 161.473 95.9306L147.71 92.6788C147.71 92.6788 138.453 80.4178 136.7 66.1562C136.7 66.1531 145.333 67.5297 145.834 57.6457Z" fill="#FFBEAE"/>
<path d="M149.379 108.019C152.903 106.449 156.171 104.332 159.058 101.772C159.428 101.442 159.395 100.808 159.058 100.475C158.691 100.108 158.131 100.144 157.761 100.475C152.867 104.813 146.785 107.728 140.364 108.933C133.906 110.145 127.188 109.456 121.058 107.128C117.629 105.825 114.371 103.981 111.504 101.692C111.119 101.383 110.583 101.313 110.207 101.692C109.886 102.014 109.819 102.681 110.207 102.989C115.68 107.361 122.269 110.142 129.214 111.05C136.069 111.947 143.074 110.827 149.379 108.019Z" fill="#180205"/>
<path d="M147.094 173.87C147.74 171.453 148.388 169.037 149.034 166.62C150.062 162.784 151.086 158.951 152.114 155.114C152.35 154.233 152.585 153.355 152.821 152.474C153.127 151.333 151.356 150.844 151.05 151.985C150.404 154.402 149.756 156.818 149.11 159.235C148.082 163.071 147.057 166.904 146.03 170.74C145.794 171.622 145.559 172.499 145.323 173.381C145.017 174.525 146.788 175.011 147.094 173.87Z" fill="#180205"/>
<path d="M160.095 143.225L121.437 100.437C121.437 100.437 103.67 102.438 89.7537 105.971C75.8377 109.505 63.1454 116.204 63.1454 116.204C63.1454 116.204 56.1278 109.446 43.8668 107.828C31.6058 106.21 14.5909 104.692 14.5909 104.692L9.41797 110.964L55.1274 133.656L158.033 153.054L160.095 143.225Z" fill="#FCF4E6"/>
<path d="M101.92 167.246L160.096 155.524L120.948 108.673L70.3745 119.579H60.2549L6.58252 110.481L43.7417 155.524L86.5297 165.371L101.92 167.246Z" fill="#0E6AC3"/>
<path d="M70.3745 119.579H60.2549L86.5297 165.371L101.92 167.246L70.3745 119.579Z" fill="#1058C1"/>
<path d="M91.0326 160.527L99.0383 167.245C99.0383 167.245 107.797 163.063 111.55 158.899C111.55 158.899 105.043 154.36 104.043 143.35C103.043 132.34 97.6617 133.09 95.1593 134.341C92.657 135.592 93.2841 139.345 89.7783 140.095C86.2756 140.844 73.0143 131.838 67.1316 134.215C61.252 136.592 62.6286 143.472 66.3821 147.853C70.1387 152.231 78.897 158.814 91.0326 160.527Z" fill="#FFBEAE"/>
<path d="M165.728 214.912C180.76 212.764 189.424 186.645 191.617 161.637C192.874 147.308 146.21 173.626 146.21 173.626C139.829 171.75 109.427 155.522 109.427 155.522C102.67 162.191 96.2915 166.495 96.2915 166.495C103.796 177.755 142.08 218.292 165.728 214.912Z" fill="white"/>
<path d="M149.496 174.358C149.4 174.318 149.666 174.429 149.496 174.358V174.358Z" fill="#180205"/>
<path d="M108.962 156.314C109.17 156.421 109.378 156.528 109.586 156.638C109.749 156.482 109.914 156.329 110.076 156.17C109.703 156.219 109.333 156.265 108.962 156.314Z" fill="#180205"/>
<path d="M109.586 156.639C109.378 156.532 109.17 156.425 108.962 156.314C109.333 156.266 109.703 156.22 110.076 156.171C109.914 156.33 109.749 156.48 109.586 156.639C110.599 157.165 111.615 157.694 112.63 158.217C115.616 159.762 118.608 161.298 121.603 162.824C125.375 164.745 129.153 166.654 132.946 168.539C136.531 170.319 140.129 172.084 143.757 173.776C146.189 174.911 148.639 176.101 151.181 176.973C151.35 177.031 151.521 177.086 151.695 177.138C152.83 177.474 153.314 175.703 152.185 175.367C151.273 175.098 150.392 174.724 149.514 174.36C149.508 174.357 149.505 174.357 149.499 174.354C149.404 174.314 149.667 174.425 149.499 174.354C149.493 174.351 149.493 174.351 149.487 174.348C149.422 174.32 149.355 174.293 149.291 174.265C149.126 174.195 148.96 174.125 148.798 174.054C148.477 173.917 148.159 173.776 147.841 173.632C147.119 173.311 146.403 172.984 145.687 172.653C142.166 171.029 138.682 169.328 135.207 167.609C131.386 165.721 127.58 163.803 123.781 161.87C120.654 160.279 117.531 158.679 114.414 157.067C112.93 156.299 111.459 155.495 109.96 154.757C109.938 154.748 109.917 154.736 109.898 154.724C109.531 154.534 109.088 154.571 108.785 154.868C105.025 158.572 100.987 162.026 96.6953 165.091C96.4108 165.296 96.1232 165.498 95.8326 165.697C95.4411 165.963 95.2147 166.517 95.5022 166.951C97.1266 169.383 99.0049 171.656 100.902 173.88C103.627 177.074 106.488 180.154 109.433 183.146C112.927 186.698 116.546 190.127 120.29 193.409C124.237 196.869 128.327 200.17 132.591 203.226C136.644 206.129 140.869 208.821 145.329 211.058C149.263 213.031 153.427 214.707 157.768 215.518C161.738 216.258 165.942 216.322 169.717 214.719C174.195 212.82 177.597 209.02 180.2 205.022C183.51 199.938 185.78 194.18 187.548 188.402C189.583 181.754 190.932 174.908 191.837 168.019C192.06 166.318 192.253 164.611 192.418 162.901C192.467 162.408 191.963 161.983 191.501 161.983C190.965 161.983 190.632 162.405 190.583 162.901C189.919 169.744 188.799 176.551 187.092 183.213C185.56 189.2 183.574 195.141 180.659 200.611C178.392 204.866 175.422 209.136 171.39 211.752C169.6 212.914 167.808 213.658 165.675 213.991C165.63 213.997 165.44 214.025 165.425 214.028C165.446 214.025 165.464 214.022 165.486 214.022C165.434 214.028 165.422 214.031 165.425 214.028C165.351 214.037 165.275 214.046 165.201 214.055C164.969 214.083 164.736 214.104 164.504 214.123C164.048 214.159 163.589 214.178 163.13 214.184C162.2 214.196 161.27 214.15 160.347 214.055C160.126 214.034 159.909 214.007 159.692 213.979C159.615 213.97 159.597 213.967 159.594 213.967C159.591 213.967 159.597 213.967 159.594 213.967C159.591 213.967 159.573 213.964 159.496 213.951C159.365 213.933 159.23 213.912 159.098 213.89C158.621 213.814 158.144 213.728 157.67 213.63C156.657 213.422 155.657 213.165 154.666 212.872C152.601 212.26 150.576 211.48 148.691 210.632C144.317 208.662 140.175 206.2 136.204 203.514C131.979 200.656 127.944 197.527 124.05 194.235C120.229 191.005 116.543 187.615 112.982 184.104C109.877 181.041 106.861 177.884 103.97 174.617C102.792 173.287 101.636 171.937 100.51 170.561C100.03 169.973 99.5556 169.38 99.0906 168.78C99.0661 168.75 98.9927 168.652 98.9774 168.634C98.9958 168.658 99.0141 168.683 99.0355 168.707C98.9835 168.637 98.9713 168.621 98.9774 168.634C98.9499 168.6 98.9254 168.566 98.8979 168.53C98.7908 168.389 98.6837 168.251 98.5797 168.11C98.3931 167.863 98.2065 167.612 98.0229 167.358C97.8669 167.144 97.7201 166.924 97.5671 166.706C97.2979 166.896 97.0257 167.086 96.7534 167.269C96.8636 166.85 96.9737 166.431 97.0838 166.015C97.2398 166.251 97.4081 166.477 97.5671 166.706C100.397 164.73 103.083 162.515 105.674 160.245C107.008 159.089 108.311 157.878 109.586 156.639Z" fill="#180205"/>
<path d="M99.036 168.722C99.0175 168.697 98.999 168.673 98.9774 168.648C98.9681 168.639 98.9805 168.654 99.036 168.722Z" fill="#180205"/>
<path d="M96.7534 167.287C97.0257 167.104 97.2979 166.914 97.5671 166.724C97.405 166.495 97.2398 166.265 97.0838 166.033C96.9706 166.449 96.8605 166.868 96.7534 167.287Z" fill="#180205"/>
<path d="M52.6256 137.956C50.6249 133.19 34.904 123.612 26.1029 134.135C17.2988 144.659 29.8565 158.896 29.8565 158.896L33.3592 168.743C40.8663 171.496 51.876 165.24 51.876 165.24L49.3737 161.738C51.8761 153.732 48.6242 150.447 48.6242 150.447C52.8733 147.917 54.6262 142.722 52.6256 137.956Z" fill="#FFBEAE"/>
<path d="M61.8821 169.448C61.8821 169.448 54.3628 166.04 52.1235 162.929C52.1235 162.929 45.3659 166.743 31.606 167.245C31.606 167.245 36.3599 192.018 49.2479 198.525L61.8821 169.448Z" fill="white"/>
<path d="M137.424 58.147C137.504 56.0179 139.624 54.317 141.707 54.5801C141.955 54.6107 142.166 54.3476 142.166 54.1212C142.166 53.849 141.955 53.6929 141.707 53.6624C139.113 53.335 136.605 55.5682 136.507 58.147C136.485 58.7375 137.403 58.7375 137.424 58.147Z" fill="#180205"/>
<path d="M116.191 60.8451C117.075 60.683 117.598 59.493 117.359 58.1929C117.118 56.8927 116.206 55.9689 115.322 56.131C114.438 56.2931 113.915 57.4832 114.153 58.7833C114.392 60.0865 115.307 61.0073 116.191 60.8451Z" fill="#180205"/>
<path d="M115.472 60.3995C115.816 60.3995 116.096 60.1201 116.096 59.7754C116.096 59.4308 115.816 59.1514 115.472 59.1514C115.127 59.1514 114.848 59.4308 114.848 59.7754C114.848 60.1201 115.127 60.3995 115.472 60.3995Z" fill="white"/>
<path d="M102.444 64.4043C103.285 64.0828 103.584 62.8204 103.112 61.5847C102.64 60.3489 101.575 59.6079 100.734 59.9295C99.8924 60.251 99.5934 61.5135 100.066 62.7492C100.538 63.9849 101.603 64.7259 102.444 64.4043Z" fill="#180205"/>
<path d="M101.645 64.0795C101.984 64.0152 102.208 63.691 102.147 63.3514C102.082 63.0118 101.758 62.7885 101.419 62.8497C101.079 62.9109 100.856 63.2382 100.917 63.5778C100.978 63.9173 101.305 64.1437 101.645 64.0795Z" fill="white"/>
<path d="M112.603 52.382C112.967 51.7304 113.563 51.2318 114.285 51.0268C115.074 50.8005 115.913 50.9565 116.598 51.4001C117.094 51.7213 117.555 50.9289 117.06 50.6077C116.179 50.0357 115.053 49.8521 114.041 50.1428C113.098 50.412 112.285 51.0636 111.81 51.9201C111.523 52.4371 112.315 52.899 112.603 52.382Z" fill="#180205"/>
<path d="M97.3039 57.1923C97.6679 56.5407 98.2644 56.0421 98.9864 55.8371C99.7756 55.6108 100.614 55.7668 101.299 56.2104C101.795 56.5316 102.257 55.7393 101.761 55.418C100.88 54.846 99.7543 54.6624 98.7417 54.9531C97.7995 55.2223 96.9857 55.8739 96.5116 56.7304C96.224 57.2443 97.0163 57.7093 97.3039 57.1923Z" fill="#180205"/>
<path d="M106.601 68.2428C106.686 68.0685 106.763 67.891 106.839 67.7167C106.668 67.6769 106.497 67.6279 106.325 67.5698C106.417 67.7962 106.509 68.0195 106.601 68.2428Z" fill="#180205"/>
<path d="M106.081 68.4537C107.041 68.781 108.048 68.8453 109.045 68.6831C109.626 68.5883 109.378 67.7042 108.8 67.7991C108.139 67.9061 107.479 67.8694 106.836 67.7165C106.76 67.8939 106.683 68.0713 106.598 68.2426C106.506 68.0193 106.414 67.7929 106.322 67.5696C106.491 67.6277 106.662 67.6767 106.836 67.7165C107.622 65.9146 107.996 63.9537 107.883 61.9837C107.849 61.3963 106.931 61.3932 106.965 61.9837C107.078 63.9843 106.689 65.9819 105.802 67.7807C105.671 68.056 105.787 68.3558 106.081 68.4537Z" fill="#180205"/>
<path d="M116.151 71.7126C116.527 71.2629 115.882 70.6113 115.502 71.0641C114.046 72.7956 111.648 73.5909 109.451 73.0189C108.879 72.869 108.635 73.7561 109.207 73.903C111.697 74.5515 114.487 73.6888 116.151 71.7126Z" fill="#180205"/>
<path d="M128.109 81.4194C122.814 86.9259 114.065 87.1736 114.065 87.1736L113.817 93.2552C126.442 91.3035 128.109 81.4194 128.109 81.4194Z" fill="#180205"/>
<path d="M44.0537 150.622C41.8388 151.175 39.5047 151.13 37.3021 150.539C36.1611 150.233 35.6716 152.004 36.8158 152.31C40.9547 153.421 45.5832 152.797 49.1257 150.319C52.3163 148.089 54.4272 144.54 54.3078 140.579C54.2405 138.358 53.4941 136.244 52.093 134.515C51.781 134.13 51.1202 134.191 50.796 134.515C50.4166 134.895 50.4839 135.427 50.796 135.812C52.8303 138.321 52.974 142.105 51.5332 144.926C50.0465 147.838 47.1862 149.836 44.0537 150.622Z" fill="#180205"/>
</g>
</svg>
