<svg width="295" height="283" viewBox="0 0 295 283" fill="none" xmlns="http://www.w3.org/2000/svg">
<mask id="mask0_1549_2328" style="mask-type:alpha" maskUnits="userSpaceOnUse" x="4" y="0" width="287" height="276">
<path d="M291 12.4785C291 5.85111 285.627 0.478516 279 0.478516H15.9999C9.37252 0.478516 3.99994 5.8511 3.99994 12.4785V263C3.99994 269.628 9.37252 275 15.9999 275H279C285.627 275 291 269.628 291 263V12.4785Z" fill="#FF7F4D"/>
</mask>
<g mask="url(#mask0_1549_2328)">
<path d="M165.295 297.026C161.21 291.876 158.956 287.589 157.754 284.185L156.938 284.692C152.628 265.405 160.914 246.644 160.914 246.644L188.338 238.963C188.338 238.963 192.563 252.189 196.019 260.335C201.395 267.579 210.099 269.884 210.099 269.884L215.414 304.961C215.419 304.966 177.07 311.877 165.295 297.026Z" fill="#FF3131"/>
<path d="M125.744 210.107C108.1 220.366 90.4798 225.535 70.1081 224.258L13.2749 195.834C6.03986 175.435 0.438732 154.035 1.45286 132.414C2.46698 110.794 10.8382 88.7739 27.5431 75.0128C35.426 68.5196 44.8301 64.0687 52.6567 57.5051C63.7276 48.2183 71.4603 34.861 84.1791 27.9969C104.354 17.1091 132.604 21.7337 142.271 43.0491C156.943 41.5138 174.906 56.0121 162.732 95.8446C159.398 106.756 153.891 121.268 155.698 132.532C160.915 165.077 149.524 196.285 125.744 210.107Z" fill="#2E0031"/>
<path d="M-3.12399 203.835C3.54763 155.847 43.1736 147.509 43.1736 147.509L124.59 150.387C124.59 150.387 144.943 151.265 159.92 169.834C174.897 188.402 182.386 195.891 182.963 213.173C183.541 230.456 173.169 255.227 168.564 263.865C163.953 272.504 167.413 295.548 167.413 295.548C167.413 295.548 105.444 354.883 12.5057 341.822C15.1959 333.873 18.0318 325.445 18.8205 318.609C-1.37275 288.068 -8.6782 243.822 -3.12399 203.835Z" fill="#FF3131"/>
<path d="M169.521 293.025C169.68 293.767 169.3 294.546 168.535 294.758C167.83 294.95 166.962 294.523 166.802 293.772C165.38 287.199 165.032 280.41 165.793 273.729C166.563 266.94 168.384 260.334 171.23 254.122C172.798 250.7 174.69 247.432 176.873 244.361C177.314 243.742 178.103 243.446 178.798 243.854C179.408 244.211 179.746 245.16 179.305 245.779C175.544 251.061 172.676 256.935 170.812 263.141C168.952 269.315 168.074 275.752 168.234 282.199C168.323 285.847 168.751 289.462 169.521 293.025Z" fill="#180205"/>
<path d="M67.1796 88.7507C66.4097 73.5811 79.659 75.6939 83.1192 82.7975C83.1192 82.7975 98.4813 83.375 107.89 69.1631C117.299 54.956 132.342 53.9935 138.675 62.252C138.675 62.252 148.211 60.5243 149.558 74.9239C150.901 89.3235 145.112 134.64 115.937 134.067C115.937 134.067 116.144 145.204 116.914 149.044L124.595 150.387C124.595 150.387 118.623 168.702 89.8378 169.782C53.9303 171.125 43.1787 147.509 43.1787 147.509L64.3016 142.518C64.3016 142.518 78.5087 123.7 81.199 101.812C81.199 101.808 67.9496 103.92 67.1796 88.7507Z" fill="#FFBEAE"/>
<path d="M61.7385 166.061C56.3298 163.652 51.3155 160.403 46.8834 156.473C46.3153 155.966 46.367 154.995 46.8834 154.483C47.4468 153.919 48.306 153.976 48.8741 154.483C56.3861 161.14 65.7198 165.615 75.5747 167.465C85.4859 169.324 95.7961 168.267 105.205 164.694C110.468 162.694 115.468 159.863 119.868 156.351C120.459 155.877 121.281 155.769 121.858 156.351C122.351 156.844 122.454 157.868 121.858 158.342C113.459 165.051 103.346 169.319 92.688 170.713C82.1665 172.089 71.4149 170.371 61.7385 166.061Z" fill="#180205"/>
<path d="M65.2449 267.127C64.2543 263.418 63.259 259.709 62.2683 256C60.6908 250.112 59.1179 244.23 57.5404 238.342C57.1789 236.99 56.8174 235.642 56.4559 234.29C55.9864 232.539 58.7047 231.788 59.1742 233.539C60.1649 237.248 61.1603 240.957 62.1509 244.666C63.7285 250.554 65.3013 256.437 66.8788 262.324C67.2403 263.676 67.6018 265.024 67.9633 266.376C68.4328 268.132 65.7144 268.878 65.2449 267.127Z" fill="#180205"/>
<path d="M45.2917 220.095L104.623 154.425C104.623 154.425 131.891 157.496 153.249 162.919C174.607 168.341 194.086 178.623 194.086 178.623C194.086 178.623 204.857 168.252 223.674 165.768C242.492 163.285 268.606 160.956 268.606 160.956L276.545 170.581L206.392 205.409L48.4561 235.18L45.2917 220.095Z" fill="#FCF4E6"/>
<path d="M134.576 256.961L45.2909 238.97L105.373 167.065L182.991 183.803H198.522L280.896 169.84L223.866 238.97L158.197 254.083L134.576 256.961Z" fill="#0E6AC3"/>
<path d="M182.99 183.803H198.521L158.196 254.083L134.575 256.961L182.99 183.803Z" fill="#1058C1"/>
<path d="M151.286 246.648L138.999 256.958C138.999 256.958 125.558 250.54 119.797 244.15C119.797 244.15 129.783 237.183 131.318 220.286C132.854 203.388 141.112 204.539 144.953 206.459C148.793 208.379 147.831 214.14 153.211 215.29C158.587 216.44 178.94 202.618 187.969 206.266C196.992 209.914 194.88 220.473 189.119 227.197C183.353 233.915 169.911 244.019 151.286 246.648Z" fill="#FFBEAE"/>
<path d="M36.6473 330.116C13.5759 326.82 0.279625 286.734 -3.08671 248.352C-5.01636 226.361 66.6015 266.752 66.6015 266.752C76.3953 263.874 123.054 238.967 123.054 238.967C133.426 249.202 143.215 255.808 143.215 255.808C131.698 273.09 72.9398 335.304 36.6473 330.116Z" fill="#FF3131"/>
<path d="M61.5589 267.877C61.7057 267.816 61.2984 267.986 61.5589 267.877V267.877Z" fill="#180205"/>
<path d="M123.768 240.183C123.448 240.347 123.129 240.512 122.81 240.681C122.561 240.441 122.307 240.207 122.059 239.962C122.631 240.038 123.199 240.108 123.768 240.183Z" fill="#180205"/>
<path d="M122.81 240.681C123.129 240.517 123.449 240.353 123.768 240.184C123.2 240.109 122.632 240.038 122.059 239.963C122.308 240.207 122.561 240.437 122.81 240.681C121.256 241.489 119.697 242.301 118.139 243.104C113.556 245.475 108.964 247.832 104.368 250.175C98.5791 253.123 92.7808 256.053 86.9589 258.945C81.4564 261.677 75.9351 264.387 70.3668 266.983C66.6342 268.725 62.8735 270.551 58.9719 271.889C58.7137 271.978 58.4508 272.063 58.1831 272.143C56.4413 272.659 55.6995 269.941 57.432 269.424C58.8311 269.011 60.1832 268.438 61.5307 267.88C61.5401 267.875 61.5448 267.875 61.5542 267.87C61.296 267.978 61.6997 267.809 61.5542 267.87C61.5636 267.866 61.5635 267.866 61.5729 267.861C61.6715 267.819 61.7748 267.776 61.8734 267.734C62.127 267.626 62.3805 267.518 62.6293 267.41C63.1223 267.199 63.6106 266.983 64.0989 266.762C65.2069 266.269 66.3055 265.767 67.4042 265.26C72.8081 262.767 78.1558 260.156 83.4893 257.518C89.3534 254.621 95.194 251.677 101.025 248.71C105.824 246.268 110.617 243.813 115.401 241.339C117.678 240.16 119.937 238.925 122.237 237.794C122.27 237.78 122.303 237.761 122.331 237.742C122.895 237.451 123.575 237.508 124.04 237.963C129.81 243.649 136.008 248.949 142.595 253.654C143.032 253.968 143.473 254.278 143.919 254.583C144.52 254.992 144.867 255.842 144.426 256.508C141.933 260.241 139.05 263.729 136.139 267.142C131.956 272.044 127.566 276.772 123.045 281.364C117.683 286.815 112.129 292.078 106.382 297.115C100.326 302.426 94.0484 307.492 87.5036 312.182C81.2827 316.637 74.7989 320.769 67.9535 324.201C61.9157 327.229 55.5258 329.802 48.8635 331.046C42.7694 332.183 36.3184 332.281 30.5248 329.821C23.6513 326.905 18.4304 321.074 14.435 314.938C9.35497 307.135 5.87125 298.299 3.15753 289.43C0.0353409 279.227 -2.03517 268.72 -3.4249 258.147C-3.76763 255.536 -4.06343 252.917 -4.31696 250.292C-4.39208 249.536 -3.61741 248.884 -2.90846 248.884C-2.08683 248.884 -1.57507 249.531 -1.49995 250.292C-0.481132 260.795 1.23726 271.241 3.85708 281.467C6.20929 290.655 9.25637 299.773 13.7307 308.168C17.2097 314.698 21.7686 321.253 27.9566 325.267C30.7032 327.051 33.4545 328.192 36.7269 328.704C36.7974 328.713 37.0884 328.755 37.1119 328.76C37.079 328.755 37.0509 328.751 37.018 328.751C37.0978 328.76 37.1166 328.765 37.1119 328.76C37.2246 328.774 37.3419 328.788 37.4546 328.802C37.8114 328.844 38.1683 328.877 38.5251 328.905C39.2247 328.962 39.9289 328.99 40.6332 328.999C42.0604 329.018 43.4877 328.948 44.9056 328.802C45.2437 328.769 45.577 328.727 45.9104 328.685C46.0277 328.671 46.0559 328.666 46.0606 328.666C46.0559 328.666 46.0653 328.666 46.0606 328.666C46.0653 328.666 46.0935 328.661 46.2108 328.643C46.4127 328.614 46.6193 328.582 46.8212 328.549C47.5536 328.431 48.286 328.3 49.0138 328.15C50.5678 327.83 52.1031 327.436 53.6243 326.985C56.7934 326.046 59.9016 324.849 62.7937 323.548C69.5076 320.525 75.8646 316.745 81.9587 312.623C88.4426 308.238 94.6353 303.435 100.612 298.383C106.476 293.425 112.134 288.223 117.599 282.833C122.364 278.134 126.993 273.288 131.43 268.274C133.238 266.232 135.012 264.161 136.74 262.048C137.477 261.147 138.205 260.236 138.919 259.316C138.956 259.269 139.069 259.119 139.092 259.091C139.064 259.128 139.036 259.166 139.003 259.203C139.083 259.095 139.102 259.072 139.092 259.091C139.135 259.039 139.172 258.987 139.214 258.931C139.379 258.715 139.543 258.504 139.703 258.288C139.989 257.907 140.276 257.522 140.557 257.133C140.797 256.804 141.022 256.466 141.257 256.133C141.67 256.424 142.088 256.715 142.506 256.997C142.337 256.353 142.168 255.71 141.999 255.072C141.759 255.433 141.501 255.781 141.257 256.133C136.914 253.1 132.792 249.7 128.815 246.217C126.768 244.442 124.768 242.583 122.81 240.681Z" fill="#180205"/>
<path d="M139.001 259.226C139.03 259.188 139.058 259.151 139.091 259.113C139.106 259.098 139.087 259.122 139.001 259.226Z" fill="#180205"/>
<path d="M142.506 257.024C142.088 256.742 141.67 256.451 141.257 256.16C141.506 255.808 141.759 255.456 141.999 255.099C142.173 255.738 142.342 256.381 142.506 257.024Z" fill="#180205"/>
<path d="M210.231 212.008C213.301 204.693 237.429 189.993 250.936 206.144C264.449 222.295 245.176 244.145 245.176 244.145L239.8 259.259C228.278 263.484 211.381 253.883 211.381 253.883L215.221 248.507C211.381 236.22 216.372 231.178 216.372 231.178C209.85 227.295 207.16 219.323 210.231 212.008Z" fill="#FFBEAE"/>
<path d="M196.024 260.34C196.024 260.34 207.564 255.109 211.001 250.334C211.001 250.334 221.372 256.189 242.49 256.959C242.49 256.959 235.194 294.979 215.414 304.966L196.024 260.34Z" fill="#FF3131"/>
<path d="M80.0851 89.5204C79.963 86.2527 76.7093 83.6422 73.512 84.046C73.1317 84.0929 72.8078 83.6892 72.8078 83.3417C72.8078 82.9239 73.1317 82.6844 73.512 82.6375C77.4934 82.1351 81.3433 85.5625 81.4936 89.5204C81.5264 90.4265 80.1179 90.4265 80.0851 89.5204Z" fill="#180205"/>
<path d="M112.673 93.6613C111.316 93.4125 110.514 91.5861 110.88 89.5907C111.251 87.5953 112.65 86.1774 114.007 86.4263C115.363 86.6751 116.166 88.5015 115.8 90.4969C115.434 92.497 114.03 93.9102 112.673 93.6613Z" fill="#180205"/>
<path d="M113.777 92.9776C113.248 92.9776 112.819 92.5488 112.819 92.0198C112.819 91.4908 113.248 91.062 113.777 91.062C114.306 91.062 114.734 91.4908 114.734 92.0198C114.734 92.5488 114.306 92.9776 113.777 92.9776Z" fill="white"/>
<path d="M133.771 99.1236C132.48 98.6301 132.021 96.6926 132.747 94.7961C133.472 92.8996 135.106 91.7622 136.397 92.2558C137.688 92.7493 138.147 94.6868 137.422 96.5834C136.697 98.4799 135.062 99.6172 133.771 99.1236Z" fill="#180205"/>
<path d="M134.998 98.6251C134.477 98.5265 134.134 98.0288 134.228 97.5076C134.327 96.9865 134.824 96.6437 135.345 96.7377C135.867 96.8316 136.209 97.3339 136.115 97.8551C136.021 98.3762 135.519 98.7237 134.998 98.6251Z" fill="white"/>
<path d="M118.181 80.6721C117.623 79.672 116.707 78.9068 115.599 78.5922C114.388 78.2448 113.101 78.4842 112.05 79.165C111.289 79.658 110.58 78.442 111.341 77.949C112.693 77.071 114.421 76.7893 115.975 77.2354C117.421 77.6485 118.67 78.6486 119.397 79.9632C119.839 80.7566 118.623 81.4655 118.181 80.6721Z" fill="#180205"/>
<path d="M141.662 88.0549C141.103 87.0549 140.187 86.2896 139.079 85.975C137.868 85.6276 136.582 85.867 135.53 86.5478C134.769 87.0408 134.06 85.8248 134.821 85.3318C136.173 84.4538 137.901 84.1721 139.455 84.6182C140.901 85.0313 142.15 86.0314 142.878 87.346C143.319 88.1347 142.103 88.8484 141.662 88.0549Z" fill="#180205"/>
<path d="M127.394 105.014C127.262 104.747 127.145 104.474 127.028 104.207C127.291 104.146 127.553 104.071 127.816 103.981C127.676 104.329 127.535 104.672 127.394 105.014Z" fill="#180205"/>
<path d="M128.191 105.338C126.717 105.841 125.173 105.939 123.642 105.69C122.75 105.545 123.13 104.188 124.018 104.334C125.032 104.498 126.046 104.442 127.032 104.207C127.149 104.479 127.266 104.751 127.398 105.014C127.539 104.672 127.68 104.324 127.821 103.981C127.562 104.071 127.299 104.146 127.032 104.207C125.825 101.441 125.252 98.4319 125.426 95.4083C125.478 94.5069 126.886 94.5022 126.835 95.4083C126.661 98.4789 127.257 101.545 128.619 104.305C128.821 104.728 128.642 105.188 128.191 105.338Z" fill="#180205"/>
<path d="M112.735 110.34C112.157 109.65 113.148 108.65 113.73 109.345C115.965 112.002 119.646 113.223 123.017 112.345C123.895 112.115 124.271 113.476 123.393 113.702C119.571 114.697 115.289 113.373 112.735 110.34Z" fill="#180205"/>
<path d="M94.3812 125.237C102.508 133.688 115.936 134.069 115.936 134.069L116.316 143.402C96.9401 140.407 94.3812 125.237 94.3812 125.237Z" fill="#180205"/>
<path d="M223.387 231.446C226.787 232.296 230.369 232.226 233.749 231.32C235.501 230.85 236.252 233.569 234.496 234.038C228.144 235.742 221.04 234.785 215.603 230.982C210.706 227.559 207.467 222.113 207.65 216.033C207.753 212.624 208.899 209.38 211.049 206.727C211.528 206.136 212.542 206.229 213.04 206.727C213.622 207.309 213.519 208.126 213.04 208.718C209.917 212.568 209.697 218.375 211.908 222.704C214.19 227.174 218.58 230.24 223.387 231.446Z" fill="#180205"/>
</g>
</svg>
