<svg width="261" height="351" viewBox="0 0 261 351" fill="none" xmlns="http://www.w3.org/2000/svg">
<g opacity="0.5">
<path d="M2.04762 467.715C-9.40715 686.596 187.763 690.563 287.779 665.186C473.722 612.73 369.802 534.19 503.087 424.405C636.372 314.619 474.727 329.539 420.761 243.373C366.795 157.206 592.094 142.046 489.032 -13.9968C385.97 -170.04 53.887 -82.2463 243.483 101.165C433.079 284.577 16.3661 194.115 2.04762 467.715Z" stroke="#F4F4F4" stroke-width="2"/>
<path d="M61.9136 427.703C53.1696 596.298 204.858 599.415 281.796 579.9C424.83 539.552 344.857 479.022 447.362 394.499C549.867 309.975 425.514 321.417 383.97 255.028C342.425 188.639 515.749 177.032 436.412 56.8038C357.075 -63.4248 101.623 4.09674 247.541 145.434C393.459 286.771 72.8435 216.96 61.9136 427.703Z" stroke="#F4F4F4" stroke-width="2"/>
<path d="M-53.3263 504.956C-67.1613 770.831 172.158 775.711 293.547 744.917C519.223 681.256 393.063 585.819 554.806 452.502C716.549 319.185 520.354 337.258 454.824 232.573C389.295 127.888 662.752 109.544 537.609 -80.0375C412.467 -269.619 9.42269 -163.078 239.606 59.7755C469.789 282.629 -36.0326 172.613 -53.3263 504.956Z" stroke="#F4F4F4" stroke-width="2"/>
<path d="M-99.9125 536.002C-115.905 840.825 158.775 846.319 298.114 810.963C557.162 737.881 412.401 628.52 598.1 475.607C783.799 322.695 558.606 343.499 483.438 223.508C408.271 103.518 722.142 82.3703 578.588 -134.925C435.035 -352.221 -27.6083 -229.904 236.492 25.4922C500.592 280.889 -79.9225 154.973 -99.9125 536.002Z" stroke="#F4F4F4" stroke-width="2"/>
<path d="M-166.321 580.823C-185.082 942.332 140.203 949.008 305.191 907.157C611.92 820.633 440.426 690.847 660.246 509.601C880.066 328.356 613.4 352.898 524.315 210.546C435.23 68.1937 806.91 43.2958 636.784 -214.5C466.659 -472.295 -81.1427 -327.497 231.76 -24.4441C544.662 278.609 -142.87 128.936 -166.321 580.823Z" stroke="#F4F4F4" stroke-width="2"/>
<path d="M-243.769 633.221C-265.686 1061.11 118.66 1069.23 313.573 1019.81C675.929 917.608 473.212 763.868 732.816 549.488C992.42 335.109 677.356 363.974 571.999 195.417C466.643 26.861 905.786 -2.35342 704.596 -307.61C503.406 -612.867 -143.751 -441.854 226.168 -82.9299C596.088 275.994 -216.371 98.3603 -243.769 633.221Z" stroke="#F4F4F4" stroke-width="2"/>
</g>
</svg>
