<svg width="625" height="437" viewBox="0 0 625 437" fill="none" xmlns="http://www.w3.org/2000/svg">
<g opacity="0.1">
<path d="M386.501 307.651C345.116 394.504 424.421 429.208 469.247 435.703C553.468 445.637 524.502 396.339 596.988 374.183C669.475 352.026 601.409 330.946 593.983 286.939C586.558 242.933 680.482 274.6 664.872 194.011C649.262 113.423 499.836 93.2918 545.95 199.505C592.063 305.719 438.232 199.084 386.501 307.651Z" stroke="#242424" stroke-width="2"/>
<path d="M417.498 301.471C385.653 368.384 446.654 395.109 481.135 400.107C545.921 407.751 523.644 369.777 579.406 352.7C635.169 335.623 582.812 319.392 577.105 285.492C571.398 251.592 643.645 275.976 631.646 213.896C619.648 151.815 504.705 136.324 540.165 218.142C575.626 299.959 457.304 217.83 417.498 301.471Z" stroke="#242424" stroke-width="2"/>
<path d="M357.791 313.461C307.553 418.976 403.8 461.124 458.203 469.009C560.421 481.068 525.27 421.184 613.249 394.26C701.228 367.336 618.619 341.735 609.612 288.277C600.605 234.818 714.596 273.277 695.66 175.379C676.723 77.4818 495.369 53.044 551.324 182.067C607.279 311.09 420.588 181.568 357.791 313.461Z" stroke="#242424" stroke-width="2"/>
<path d="M333.685 318.234C276.035 439.184 386.521 487.516 448.97 496.564C566.305 510.403 525.947 441.749 626.931 410.898C727.915 380.047 633.087 350.687 622.739 289.403C612.392 228.119 743.245 272.224 721.494 159.996C699.742 47.7671 491.567 19.7244 555.816 167.64C620.066 315.555 405.748 167.047 333.685 318.234Z" stroke="#242424" stroke-width="2"/>
<path d="M299.227 325.266C230.94 468.743 361.752 526.049 435.694 536.767C574.624 553.157 526.852 471.732 646.431 435.117C766.01 398.501 653.733 363.696 641.494 291.006C629.255 218.317 784.185 270.604 758.454 137.489C732.722 4.37393 486.234 -28.8442 562.278 146.592C638.322 322.027 384.587 145.921 299.227 325.266Z" stroke="#242424" stroke-width="2"/>
<path d="M259.02 333.519C178.311 503.389 332.835 571.196 420.186 583.866C584.309 603.234 527.893 506.852 669.17 463.475C810.446 420.099 677.814 378.923 663.374 292.874C648.934 206.825 831.951 268.685 801.586 111.106C771.221 -46.4731 480.035 -85.7352 569.827 121.932C659.619 329.599 359.908 121.183 259.02 333.519Z" stroke="#242424" stroke-width="2"/>
</g>
</svg>
