<svg width="20" height="20" viewBox="0 0 20 20" fill="none" xmlns="http://www.w3.org/2000/svg">
<path d="M8.29316 14.2932L6.00016 16.5861V1.00024C6.00016 0.735028 5.89481 0.480674 5.70727 0.293137C5.51973 0.105601 5.26538 0.000244141 5.00016 0.000244141C4.73495 0.000244141 4.48059 0.105601 4.29306 0.293137C4.10552 0.480674 4.00016 0.735028 4.00016 1.00024V16.5861L1.70716 14.2932C1.51856 14.1111 1.26596 14.0103 1.00376 14.0126C0.741565 14.0148 0.490753 14.12 0.305344 14.3054C0.119936 14.4908 0.0147674 14.7416 0.012489 15.0038C0.0102106 15.266 0.111005 15.5186 0.293163 15.7072L4.29316 19.7072C4.48086 19.8944 4.73513 19.9995 5.00021 19.9995C5.2653 19.9995 5.51956 19.8944 5.70726 19.7072L9.70726 15.7072C9.89009 15.5188 9.99144 15.2659 9.98943 15.0034C9.98742 14.7408 9.88222 14.4895 9.69654 14.3039C9.51086 14.1182 9.2596 14.013 8.99703 14.011C8.73445 14.009 8.48163 14.1104 8.29316 14.2932Z" fill="#9A9A9A"/>
<path d="M9.00024 4.00048H19.0002C19.2655 4.00048 19.5198 3.89513 19.7074 3.70759C19.8949 3.52006 20.0002 3.2657 20.0002 3.00049C20.0002 2.73527 19.8949 2.48092 19.7074 2.29338C19.5198 2.10585 19.2655 2.00049 19.0002 2.00049H9.00024C8.73503 2.00049 8.48067 2.10585 8.29314 2.29338C8.1056 2.48092 8.00024 2.73527 8.00024 3.00049C8.00024 3.2657 8.1056 3.52006 8.29314 3.70759C8.48067 3.89513 8.73503 4.00048 9.00024 4.00048Z" fill="#9A9A9A"/>
<path d="M19.0002 6.00024H9.00024C8.73503 6.00024 8.48067 6.1056 8.29314 6.29314C8.1056 6.48067 8.00024 6.73503 8.00024 7.00024C8.00024 7.26546 8.1056 7.51981 8.29314 7.70735C8.48067 7.89488 8.73503 8.00024 9.00024 8.00024H19.0002C19.2655 8.00024 19.5198 7.89488 19.7074 7.70735C19.8949 7.51981 20.0002 7.26546 20.0002 7.00024C20.0002 6.73503 19.8949 6.48067 19.7074 6.29314C19.5198 6.1056 19.2655 6.00024 19.0002 6.00024Z" fill="#9A9A9A"/>
<path d="M16.0002 10H9.00024C8.73503 10 8.48067 10.1054 8.29314 10.2929C8.1056 10.4804 8.00024 10.7348 8.00024 11C8.00024 11.2652 8.1056 11.5196 8.29314 11.7071C8.48067 11.8947 8.73503 12 9.00024 12H16.0002C16.2655 12 16.5198 11.8947 16.7074 11.7071C16.8949 11.5196 17.0002 11.2652 17.0002 11C17.0002 10.7348 16.8949 10.4804 16.7074 10.2929C16.5198 10.1054 16.2655 10 16.0002 10Z" fill="#9A9A9A"/>
</svg>
