<svg width="24" height="25" viewBox="0 0 24 25" fill="none" xmlns="http://www.w3.org/2000/svg">
<g clip-path="url(#clip0_1549_2449)">
<path d="M21.2968 8.73804C21.1804 8.49263 20.9332 8.3361 20.6617 8.3361H13.6095L17.878 1.10536C18.0064 0.887779 18.0085 0.617881 17.8833 0.398425C17.7581 0.178969 17.5251 0.0433632 17.2726 0.0434571L11.2475 0.044114C10.9975 0.0442078 10.7663 0.177092 10.6403 0.393264L2.73252 13.9625C2.60563 14.1801 2.60474 14.4491 2.73013 14.6677C2.85552 14.8861 3.08807 15.0209 3.33984 15.0209H10.3471L8.30614 23.1931C8.22627 23.5129 8.37885 23.8454 8.67322 23.9931C8.77363 24.0434 8.8813 24.0677 8.98794 24.0677C9.194 24.0677 9.39594 23.9771 9.53309 23.8087L21.2066 9.48485C21.3782 9.27426 21.4133 8.98353 21.2968 8.73804V8.73804Z" fill="#FF3131"/>
</g>
<defs>
<clipPath id="clip0_1549_2449">
<rect width="24" height="24.0243" fill="white" transform="translate(0 0.043457)"/>
</clipPath>
</defs>
</svg>
