<svg width="24" height="25" viewBox="0 0 24 25" fill="none" xmlns="http://www.w3.org/2000/svg">
<path d="M21.3894 11.6551C21.6641 11.3741 21.8554 11.0221 21.9419 10.6385C22.0285 10.255 22.0068 9.85491 21.8794 9.48294C21.7599 9.10988 21.5381 8.77791 21.2393 8.52483C20.9406 8.27176 20.5768 8.10776 20.1894 8.0515L15.8994 7.39083C15.8794 7.38502 15.861 7.37482 15.8454 7.36097C15.8298 7.34711 15.8176 7.32996 15.8094 7.31075L13.9294 3.3067C13.7646 2.93176 13.4944 2.6129 13.1517 2.38896C12.809 2.16502 12.4087 2.04566 11.9994 2.04543C11.5949 2.04375 11.1986 2.15906 10.858 2.37748C10.5174 2.5959 10.247 2.90814 10.0794 3.27667L8.19945 7.28072C8.18919 7.30024 8.17501 7.31743 8.1578 7.33121C8.14059 7.34499 8.12073 7.35506 8.09945 7.3608L3.81945 8.0515C3.43154 8.10934 3.06727 8.27377 2.76715 8.52648C2.46702 8.77919 2.24281 9.11029 2.11945 9.48294C1.99675 9.8562 1.97847 10.256 2.06662 10.6389C2.15476 11.0218 2.34594 11.3733 2.61945 11.6551L5.77945 14.9084C5.78855 14.9289 5.79325 14.9511 5.79325 14.9735C5.79325 14.9959 5.78855 15.0181 5.77945 15.0386L5.03945 19.5831C4.97066 19.9789 5.0155 20.3861 5.16877 20.7574C5.32205 21.1287 5.57745 21.4488 5.90528 21.6805C6.23312 21.9122 6.61993 22.046 7.02073 22.0663C7.42154 22.0867 7.81988 21.9927 8.16945 21.7954L11.8994 19.7233C11.918 19.7136 11.9386 19.7086 11.9594 19.7086C11.9803 19.7086 12.0009 19.7136 12.0194 19.7233L15.7494 21.7954C16.0995 21.9885 16.4967 22.0791 16.8958 22.0569C17.2948 22.0347 17.6796 21.9005 18.006 21.6698C18.3325 21.439 18.5876 21.121 18.742 20.752C18.8965 20.383 18.9441 19.9779 18.8794 19.5831L18.1894 15.0586C18.1789 15.0403 18.1734 15.0196 18.1734 14.9985C18.1734 14.9774 18.1789 14.9567 18.1894 14.9385L21.3894 11.6551Z" fill="#FF3131"/>
</svg>
