<svg width="20" height="15" viewBox="0 0 20 15" fill="none" xmlns="http://www.w3.org/2000/svg">
<g clip-path="url(#clip0_6316_5176)">
<path d="M0 10H20V15H0V10Z" fill="#1EB53A"/>
<path d="M0 0H20V5H0V0Z" fill="#0099B5"/>
<path d="M0 4.7998H20V10.1998H0V4.7998Z" fill="#CE1126"/>
<path d="M0 5.1001H20V9.9001H0V5.1001Z" fill="white"/>
<path d="M4.1999 4.2001C5.19401 4.2001 5.9999 3.39421 5.9999 2.4001C5.9999 1.40599 5.19401 0.600098 4.1999 0.600098C3.20579 0.600098 2.3999 1.40599 2.3999 2.4001C2.3999 3.39421 3.20579 4.2001 4.1999 4.2001Z" fill="white"/>
<path d="M4.80001 4.2001C5.79412 4.2001 6.60001 3.39421 6.60001 2.4001C6.60001 1.40599 5.79412 0.600098 4.80001 0.600098C3.80589 0.600098 3 1.40599 3 2.4001C3 3.39421 3.80589 4.2001 4.80001 4.2001Z" fill="#0099B5"/>
<path d="M8.15942 3.48047L8.04541 3.82248L8.21942 3.88248" fill="white"/>
<path d="M8.15942 3.48047L8.04541 3.82248L8.21942 3.88248" fill="white"/>
<path d="M8.15942 3.48047L8.04541 3.82248L8.21942 3.88248" fill="white"/>
<path d="M8.15942 3.48047L8.04541 3.82248L8.21942 3.88248" fill="white"/>
<path d="M8.15942 3.48047L8.04541 3.82248L8.21942 3.88248" fill="white"/>
<path d="M8.15942 3.48047L8.04541 3.82248L8.21942 3.88248" fill="white"/>
<path d="M8.15942 3.48047L8.04541 3.82248L8.21942 3.88248" fill="white"/>
<path d="M8.15942 3.48047L8.04541 3.82248L8.21942 3.88248" fill="white"/>
<path d="M8.15942 3.48047L8.04541 3.82248L8.21942 3.88248" fill="white"/>
<path d="M8.15942 3.48047L8.04541 3.82248L8.21942 3.88248" fill="white"/>
<path d="M8.15942 3.48047L8.04541 3.82248L8.21942 3.88248" fill="white"/>
<path d="M8.15942 3.48047L8.04541 3.82248L8.21942 3.88248" fill="white"/>
<path d="M8.15942 3.48047L8.04541 3.82248L8.21942 3.88248" fill="white"/>
<path d="M8.15942 3.48047L8.04541 3.82248L8.21942 3.88248" fill="white"/>
<path d="M8.15942 3.48047L8.04541 3.82248L8.21942 3.88248" fill="white"/>
<path d="M8.15942 3.48047L8.04541 3.82248L8.21942 3.88248" fill="white"/>
<path d="M8.15942 3.48047L8.04541 3.82248L8.21942 3.88248" fill="white"/>
<path d="M8.15942 3.48047L8.04541 3.82248L8.21942 3.88248" fill="white"/>
<path d="M8.15942 3.48047L8.04541 3.82248L8.21942 3.88248" fill="white"/>
<path d="M8.15942 3.48047L8.04541 3.82248L8.21942 3.88248" fill="white"/>
<path d="M8.15942 3.48047L8.04541 3.82248L8.21942 3.88248" fill="white"/>
<path d="M8.15942 3.48047L8.04541 3.82248L8.21942 3.88248" fill="white"/>
<path d="M8.15942 3.48047L8.04541 3.82248L8.21942 3.88248" fill="white"/>
<path d="M8.15942 3.48047L8.04541 3.82248L8.21942 3.88248" fill="white"/>
<path d="M8.15942 3.48047L8.04541 3.82248L8.21942 3.88248" fill="white"/>
<path d="M8.15942 3.48047L8.04541 3.82248L8.21942 3.88248" fill="white"/>
<path d="M8.15942 3.48047L8.04541 3.82248L8.21942 3.88248" fill="white"/>
<path d="M8.15942 3.48047L8.04541 3.82248L8.21942 3.88248" fill="white"/>
<path d="M8.15942 3.48047L8.04541 3.82248L8.21942 3.88248" fill="white"/>
<path d="M8.15942 3.48047L8.04541 3.82248L8.21942 3.88248" fill="white"/>
<path d="M8.15942 3.48047L8.04541 3.82248L8.21942 3.88248" fill="white"/>
<path d="M8.15942 3.48047L8.04541 3.82248L8.21942 3.88248" fill="white"/>
<path d="M8.15942 3.48047L8.04541 3.82248L8.21942 3.88248" fill="white"/>
<path d="M8.15942 3.48047L8.04541 3.82248L8.21942 3.88248" fill="white"/>
<path d="M8.15942 3.48047L8.04541 3.82248L8.21942 3.88248" fill="white"/>
<path d="M8.15942 3.48047L8.04541 3.82248L8.21942 3.88248" fill="white"/>
<path d="M8.15942 3.48047L8.04541 3.82248L8.21942 3.88248" fill="white"/>
<path d="M8.15942 3.48047L8.04541 3.82248L8.21942 3.88248" fill="white"/>
<path d="M8.15942 3.48047L8.04541 3.82248L8.21942 3.88248" fill="white"/>
<path d="M8.15942 3.48047L8.04541 3.82248L8.21942 3.88248" fill="white"/>
<path d="M8.15942 3.48047L8.04541 3.82248L8.21942 3.88248" fill="white"/>
<path d="M8.15942 3.48047L8.04541 3.82248L8.21942 3.88248" fill="white"/>
<path d="M8.15942 3.48047L8.04541 3.82248L8.21942 3.88248" fill="white"/>
<path d="M8.15942 3.48047L8.04541 3.82248L8.21942 3.88248" fill="white"/>
<path d="M8.15942 3.48047L8.04541 3.82248L8.21942 3.88248" fill="white"/>
<path d="M8.15942 3.48047L8.04541 3.82248L8.21942 3.88248" fill="white"/>
<path d="M8.15942 3.48047L8.04541 3.82248L8.21942 3.88248" fill="white"/>
<path d="M8.15942 3.48047L8.04541 3.82248L8.21942 3.88248" fill="white"/>
<path d="M8.15942 3.48047L8.04541 3.82248L8.21942 3.88248" fill="white"/>
<path d="M8.15942 3.48047L8.04541 3.82248L8.21942 3.88248" fill="white"/>
<path d="M8.15942 3.48047L8.04541 3.82248L8.21942 3.88248" fill="white"/>
<path d="M8.15942 3.48047L8.04541 3.82248L8.21942 3.88248" fill="white"/>
<path d="M8.15942 3.48047L8.04541 3.82248L8.21942 3.88248" fill="white"/>
<path d="M8.15942 3.48047L8.04541 3.82248L8.21942 3.88248" fill="white"/>
<path d="M8.15942 3.48047L8.04541 3.82248L8.21942 3.88248" fill="white"/>
<path d="M8.15942 3.48047L8.04541 3.82248L8.21942 3.88248" fill="white"/>
<path d="M8.15942 3.48047L8.04541 3.82248L8.21942 3.88248" fill="white"/>
<path d="M8.15942 3.48047L8.04541 3.82248L8.21942 3.88248" fill="white"/>
<path d="M8.15942 3.48047L8.04541 3.82248L8.21942 3.88248" fill="white"/>
<path d="M8.15942 3.48047L8.04541 3.82248L8.21942 3.88248" fill="white"/>
</g>
<defs>
<clipPath id="clip0_6316_5176">
<rect width="20" height="15" rx="2" fill="white"/>
</clipPath>
</defs>
</svg>
