<svg width="22" height="20" viewBox="0 0 22 20" fill="none" xmlns="http://www.w3.org/2000/svg">
<path d="M19.5206 2.27344C18.9938 1.74649 18.3683 1.32849 17.6799 1.0433C16.9915 0.758113 16.2536 0.611328 15.5084 0.611328C14.7633 0.611328 14.0254 0.758113 13.337 1.0433C12.6486 1.32849 12.0231 1.74649 11.4962 2.27344L11.0001 2.76953L10.504 2.27344C9.97719 1.74649 9.35169 1.32849 8.66327 1.0433C7.97485 0.758113 7.23699 0.611328 6.49184 0.611328C5.74668 0.611328 5.00883 0.758113 4.32041 1.0433C3.63199 1.32849 3.00649 1.74649 2.47963 2.27344C0.778457 3.97412 0.481627 6.59424 1.68663 9.28271C3.15538 12.561 10.0343 18.8608 10.3263 19.1274C10.5105 19.2955 10.7508 19.3886 11.0001 19.3886C11.2494 19.3886 11.4898 19.2955 11.6739 19.1274C11.9659 18.8608 18.8448 12.561 20.3136 9.28223C21.5187 6.59424 21.2218 3.97412 19.5206 2.27344ZM18.4894 8.46436C17.5197 10.6274 13.2404 14.915 11.0001 17.0244C8.75991 14.915 4.48159 10.6289 3.51088 8.46484C3.10268 7.55225 2.32143 5.25977 3.89369 3.6875C4.58276 2.99844 5.51734 2.61133 6.49183 2.61133C7.46632 2.61133 8.4009 2.99844 9.08998 3.6875L10.2931 4.89063C10.386 4.98351 10.4962 5.05719 10.6175 5.10745C10.7388 5.15772 10.8689 5.1836 11.0002 5.1836C11.1315 5.1836 11.2615 5.15772 11.3828 5.10745C11.5041 5.05719 11.6144 4.98351 11.7072 4.89063L12.9103 3.6875C13.6104 3.01967 14.5409 2.64709 15.5084 2.64709C16.476 2.64709 17.4064 3.01967 18.1066 3.6875C19.6788 5.25977 18.8976 7.55225 18.4894 8.46436Z" fill="#242424"/>
</svg>
